#!OML:ASF X:\für Bonn\!DataBase\2005_08_12_Daniel\c3d\Daniel.ASF
:FULLY-SPECIFIED
:DEGREES
1
root -4.27756 17.2446 -2.81572 315.573 -80.7282 -321.732
lowerback 14.8261 -2.57091 -5.24813
upperback 1.22914 -4.67854 -3.69681
thorax -6.90465 -2.23275 -0.0137775
lowerneck -0.28739 1.09667 -3.8333
upperneck 5.69453 1.394 2.0779
head 1.78795 0.638311 1.3277
rclavicle 5.70512e-014 4.53229e-014
rhumerus 52.6473 -3.99191 -99.5337
rradius 5.55575
rwrist 70.037
rhand -19.817 13.8972
rfingers 7.12502
rthumb 6.51648 -15.9825
lclavicle 5.70512e-014 4.53229e-014
lhumerus 54.3556 3.16607 87.1238
lradius 11.3613
lwrist -60.9129
lhand -18.3787 -1.20289
lfingers 7.12502
lthumb 7.90485 28.6293
rfemur 0.403707 16.6557 16.2165
rtibia 28.5444
rfoot -33.6187 -21.6818
rtoes -12.4612
lfemur -6.13103 -18.0729 -24.2541
ltibia 32.1561
lfoot -24.7102 8.41223
ltoes -1.1109
2
root -4.27168 17.2374 -2.81132 316.013 -80.6308 -322.232
lowerback 15.1033 -2.59323 -5.2277
upperback 1.22719 -4.7286 -3.7019
thorax -7.06162 -2.25337 -0.0057454
lowerneck -0.230617 1.09404 -3.90478
upperneck 5.63025 1.38567 2.17843
head 1.7571 0.635195 1.37089
rclavicle -5.30258e-014 -2.62396e-014
rhumerus 53.1648 -4.39852 -100.451
rradius 5.52204
rwrist 71.0768
rhand -19.8473 13.7258
rfingers 7.12502
rthumb 6.48727 -16.1548
lclavicle -5.30258e-014 -2.62396e-014
lhumerus 54.9055 3.79837 88.6334
lradius 10.8897
lwrist -62.6127
lhand -18.693 -1.04211
lfingers 7.12502
lthumb 7.60152 28.8013
rfemur 0.101308 15.0303 15.7334
rtibia 28.8469
rfoot -32.7474 -20.539
rtoes -12.6787
lfemur -6.36416 -17.1397 -24.0669
ltibia 32.4032
lfoot -24.401 7.41546
ltoes -1.12941
3
root -4.26484 17.2277 -2.8077 316.499 -80.5355 -322.803
lowerback 15.432 -2.62107 -5.2051
upperback 1.21609 -4.78894 -3.69546
thorax -7.25592 -2.2774 0.0187054
lowerneck -0.125521 1.08962 -3.97015
upperneck 5.57165 1.3749 2.22316
head 1.71983 0.629298 1.39458
rclavicle 2.98674e-014 3.4191e-014
rhumerus 53.5775 -4.80879 -101.341
rradius 5.53607
rwrist 72.1146
rhand -19.882 13.5826
rfingers 7.12502
rthumb 6.45374 -16.2991
lclavicle 2.98674e-014 3.4191e-014
lhumerus 55.4346 4.50309 90.248
lradius 10.4059
lwrist -64.4518
lhand -19.0857 -0.917178
lfingers 7.12502
lthumb 7.22243 28.9396
rfemur -0.248677 13.283 15.2403
rtibia 29.2659
rfoot -31.9038 -19.2557
rtoes -12.9527
lfemur -6.62141 -16.1958 -23.8687
ltibia 32.7331
lfoot -24.1002 6.39807
ltoes -1.18507
4
root -4.25714 17.2128 -2.80334 316.8 -80.4436 -323.204
lowerback 15.7685 -2.64294 -5.1942
upperback 1.23522 -4.84382 -3.69875
thorax -7.42205 -2.3001 0.0383418
lowerneck -0.0431534 1.09595 -4.07423
upperneck 5.4656 1.37815 2.33622
head 1.67068 0.631813 1.44697
rclavicle 2.21396e-014 5.24792e-014
rhumerus 53.9822 -5.21387 -102.238
rradius 5.58526
rwrist 73.2414
rhand -19.9116 13.4151
rfingers 7.12502
rthumb 6.4252 -16.4674
lclavicle 2.21396e-014 5.24792e-014
lhumerus 55.9145 4.28677 90.4913
lradius 9.90085
lwrist -64.523
lhand -19.4647 -0.496014
lfingers 7.12502
lthumb 6.85655 29.373
rfemur -0.66557 11.3624 14.6831
rtibia 29.823
rfoot -31.0069 -17.8383
rtoes -13.3087
lfemur -6.91545 -15.1658 -23.6842
ltibia 33.1625
lfoot -23.8395 5.31914
ltoes -1.23697
5
root -4.24819 17.1943 -2.79898 317.277 -80.3685 -323.787
lowerback 16.1421 -2.66806 -5.14415
upperback 1.23876 -4.8982 -3.6909
thorax -7.62773 -2.32188 0.0507581
lowerneck 0.067509 1.0934 -4.15727
upperneck 5.36976 1.369 2.41557
head 1.62048 0.627461 1.48452
rclavicle -7.82715e-015 -1.51076e-014
rhumerus 54.3023 -5.65396 -103.105
rradius 5.67865
rwrist 74.3617
rhand -19.8766 13.3584
rfingers 7.12502
rthumb 6.45896 -16.5231
lclavicle -7.82715e-015 -1.51076e-014
lhumerus 56.3313 4.05509 90.7461
lradius 9.44132
lwrist -64.563
lhand -19.8077 -0.0686766
lfingers 7.12502
lthumb 6.52545 29.8108
rfemur -1.15432 9.39594 14.152
rtibia 30.5356
rfoot -30.2148 -16.3265
rtoes -13.7609
lfemur -7.27231 -14.1434 -23.4559
ltibia 33.71
lfoot -23.6255 4.18053
ltoes -1.23247
6
root -4.23861 17.1703 -2.79429 317.571 -80.2988 -324.228
lowerback 16.5738 -2.67947 -5.11524
upperback 1.24333 -4.94221 -3.67676
thorax -7.86258 -2.33693 0.0829512
lowerneck 0.204036 1.09578 -4.24451
upperneck 5.27409 1.36556 2.48306
head 1.56573 0.625365 1.51881
rclavicle 1.08835e-014 7.95139e-015
rhumerus 54.5744 -6.10331 -103.94
rradius 5.77341
rwrist 75.4835
rhand -19.8002 13.244
rfingers 7.12502
rthumb 6.53267 -16.6352
lclavicle 1.08835e-014 7.95139e-015
lhumerus 56.707 3.83963 91.0121
lradius 9.01773
lwrist -64.448
lhand -20.0495 0.298129
lfingers 7.12502
lthumb 6.29202 30.1847
rfemur -1.6822 7.46314 13.6142
rtibia 31.4172
rfoot -29.5416 -14.7687
rtoes -14.1644
lfemur -7.65201 -13.1215 -23.2575
ltibia 34.3929
lfoot -23.4505 3.04243
ltoes -1.13242
7
root -4.22729 17.1398 -2.78979 317.868 -80.233 -324.688
lowerback 17.0372 -2.6933 -5.07739
upperback 1.26188 -4.99018 -3.66932
thorax -8.10093 -2.35451 0.105695
lowerneck 0.325639 1.09985 -4.29617
upperneck 5.1598 1.36512 2.54906
head 1.50769 0.625794 1.54643
rclavicle 2.14439e-014 -3.18055e-015
rhumerus 54.8162 -6.56313 -104.785
rradius 5.8958
rwrist 76.6349
rhand -19.6625 13.1774
rfingers 7.12502
rthumb 6.66568 -16.6977
lclavicle 2.14439e-014 -3.18055e-015
lhumerus 57.0457 3.64916 91.2432
lradius 8.70774
lwrist -64.2686
lhand -20.1099 0.562371
lfingers 7.12502
lthumb 6.23374 30.4507
rfemur -2.26695 5.48402 13.077
rtibia 32.4625
rfoot -28.9404 -13.165
rtoes -14.5448
lfemur -8.09623 -12.1154 -23.0554
ltibia 35.2289
lfoot -23.3595 1.92079
ltoes -1.14534
8
root -4.21534 17.1016 -2.78477 318.127 -80.2032 -325.136
lowerback 17.5311 -2.69616 -4.99692
upperback 1.29381 -5.01782 -3.67011
thorax -8.34642 -2.36412 0.0929052
lowerneck 0.424872 1.09808 -4.31453
upperneck 5.04306 1.35874 2.59246
head 1.45323 0.623706 1.56113
rclavicle 3.87133e-014 7.95139e-016
rhumerus 55.0762 -7.07296 -105.613
rradius 5.99617
rwrist 77.7196
rhand -19.5291 13.1539
rfingers 7.12502
rthumb 6.79437 -16.717
lclavicle 3.87133e-014 7.95139e-016
lhumerus 57.335 3.42908 91.4484
lradius 8.49463
lwrist -63.9768
lhand -20.0611 0.84753
lfingers 7.12502
lthumb 6.28084 30.7344
rfemur -2.91992 3.53873 12.5551
rtibia 33.6851
rfoot -28.4804 -11.4811
rtoes -14.9249
lfemur -8.58594 -11.1565 -22.8463
ltibia 36.2164
lfoot -23.3343 0.822333
ltoes -1.10688
9
root -4.20144 17.055 -2.77914 318.354 -80.1795 -325.601
lowerback 18.1147 -2.70378 -4.91876
upperback 1.31619 -5.05716 -3.65491
thorax -8.6498 -2.37687 0.106642
lowerneck 0.538364 1.1078 -4.3601
upperneck 4.94243 1.36634 2.6478
head 1.40092 0.627859 1.58464
rclavicle -6.55989e-015 -7.95139e-015
rhumerus 55.2674 -7.55757 -106.421
rradius 6.09195
rwrist 78.7491
rhand -19.3721 13.1485
rfingers 7.12502
rthumb 6.94594 -16.7175
lclavicle -6.55989e-015 -7.95139e-015
lhumerus 57.5455 3.25746 91.6732
lradius 8.36124
lwrist -63.6704
lhand -19.8459 1.07308
lfingers 7.12502
lthumb 6.48859 30.9537
rfemur -3.58979 1.70097 12.0623
rtibia 35.0721
rfoot -28.1661 -9.84835
rtoes -15.2606
lfemur -9.11099 -10.2164 -22.6388
ltibia 37.3568
lfoot -23.3681 -0.273262
ltoes -0.981833
10
root -4.18647 16.999 -2.77363 318.444 -80.163 -325.976
lowerback 18.751 -2.69761 -4.8549
upperback 1.35867 -5.08387 -3.63924
thorax -8.95899 -2.3833 0.128431
lowerneck 0.653521 1.10874 -4.37793
upperneck 4.81926 1.36428 2.65653
head 1.34179 0.627235 1.58792
rclavicle 3.77939e-014 7.95139e-015
rhumerus 55.4426 -8.05109 -107.22
rradius 6.20764
rwrist 79.7201
rhand -19.163 13.1725
rfingers 7.12502
rthumb 7.14783 -16.6868
lclavicle 3.77939e-014 7.95139e-015
lhumerus 57.7389 3.11139 91.8852
lradius 8.25305
lwrist -63.3221
lhand -19.6231 1.21869
lfingers 7.12502
lthumb 6.70363 31.0926
rfemur -4.28848 -0.0928019 11.5613
rtibia 36.6161
rfoot -27.9818 -8.20982
rtoes -15.7349
lfemur -9.65787 -9.33292 -22.4501
ltibia 38.6388
lfoot -23.4853 -1.34703
ltoes -0.823561
